<?xml version="1.0" standalone="no"?>
<!DOCTYPE svg PUBLIC "-//W3C//DTD SVG 20010904//EN"
 "http://www.w3.org/TR/2001/REC-SVG-20010904/DTD/svg10.dtd">
<svg version="1.0" xmlns="http://www.w3.org/2000/svg"
 width="170.000000pt" height="44.400000pt" viewBox="0 0 850.000000 222.000000"
 preserveAspectRatio="xMidYMid meet">

<g transform="translate(0.000000,222.000000) scale(0.100000,-0.100000)"
fill="#574735" stroke="none">
<path d="M240 2008 c0 -2 18 -67 39 -146 36 -134 61 -195 61 -147 0 23 -65
269 -75 285 -5 9 -25 15 -25 8z"/>
<path d="M907 1803 c-4 -3 -7 -257 -7 -563 0 -461 -2 -559 -14 -575 -11 -16
-29 -20 -88 -23 -111 -5 -112 -3 -116 159 -6 212 -5 214 128 227 l75 7 0 30 0
30 -96 0 c-85 0 -99 -3 -132 -25 -20 -13 -41 -35 -46 -48 -15 -32 -14 -357 0
-385 30 -55 104 -82 207 -75 77 6 121 25 148 65 18 27 19 57 22 583 1 305 0
565 -3 578 -4 17 -12 22 -39 22 -18 0 -36 -3 -39 -7z"/>
<path d="M370 1730 c0 -6 32 -10 75 -10 43 0 75 4 75 10 0 6 -32 10 -75 10
-43 0 -75 -4 -75 -10z"/>
<path d="M3290 1692 c-39 -5 -50 -29 -50 -107 0 -86 14 -105 78 -105 61 0 72
17 72 109 0 51 -4 82 -12 88 -16 13 -55 19 -88 15z"/>
<path d="M2058 1659 c-16 -9 -18 -27 -18 -149 0 -127 -8 -167 -24 -125 -4 12
-26 15 -109 15 -173 0 -277 -40 -321 -125 -20 -38 -21 -56 -21 -295 0 -288 4
-308 65 -364 53 -48 131 -69 245 -68 148 1 237 40 278 122 22 44 22 52 25 502
3 449 3 457 -18 478 -22 22 -73 26 -102 9z m-36 -939 c-28 -37 -84 -52 -174
-48 -84 5 -123 23 -138 64 -14 35 -13 433 1 472 16 47 59 62 177 62 83 0 104
3 123 19 l24 19 3 -281 c2 -262 1 -284 -16 -307z"/>
<path d="M3672 1654 l-22 -15 0 -478 c0 -404 2 -485 15 -522 29 -80 74 -108
123 -73 39 27 44 48 22 96 -19 41 -20 67 -20 510 l0 467 -22 15 c-12 9 -34 16
-48 16 -14 0 -36 -7 -48 -16z"/>
<path d="M5623 1660 c-22 -9 -23 -14 -23 -150 0 -127 -8 -167 -24 -125 -4 12
-26 15 -109 15 -173 0 -277 -41 -322 -126 -19 -36 -20 -57 -20 -294 0 -288 4
-308 65 -364 104 -94 382 -94 482 -1 64 60 63 45 66 552 3 455 3 462 -17 482
-22 22 -60 26 -98 11z m-41 -940 c-28 -37 -84 -52 -174 -48 -84 5 -123 23
-138 64 -14 35 -13 433 1 472 15 44 67 62 183 62 77 0 98 3 117 19 l24 19 3
-281 c2 -262 1 -284 -16 -307z"/>
<path d="M7722 1654 l-22 -15 0 -524 c0 -463 2 -525 16 -539 18 -19 94 -22
112 -4 9 9 12 143 12 539 l0 528 -22 15 c-12 9 -34 16 -48 16 -14 0 -36 -7
-48 -16z"/>
<path d="M284 1650 c-18 -6 -45 -25 -61 -44 l-30 -33 -6 -234 c-4 -129 -7
-349 -7 -490 0 -280 1 -284 57 -277 l28 3 6 225 c9 329 10 346 16 333 6 -16
122 -17 178 -2 21 6 54 26 72 44 l33 33 0 176 c0 198 -6 223 -63 253 -38 19
-175 27 -223 13z m180 -84 l26 -16 0 -153 c0 -112 -4 -158 -13 -172 -10 -13
-37 -21 -104 -29 l-91 -11 -6 50 c-3 27 -6 106 -6 175 0 167 10 182 122 176
26 -2 58 -10 72 -20z"/>
<path d="M6194 1410 c-93 -19 -166 -69 -190 -127 -11 -25 -14 -97 -14 -303 0
-246 2 -274 19 -308 24 -48 45 -66 105 -93 67 -29 170 -41 262 -29 145 18 206
67 225 179 10 52 9 65 -5 86 -13 20 -25 25 -59 25 -51 0 -67 -13 -67 -57 0
-84 -40 -108 -182 -108 -83 0 -101 3 -125 21 -27 20 -28 25 -31 112 -3 107
-20 95 163 112 198 18 270 49 296 127 6 19 12 75 12 123 0 122 -25 173 -105
214 -50 24 -71 29 -160 32 -57 2 -121 -1 -144 -6z m215 -136 c31 -12 43 -24
51 -50 17 -51 4 -131 -24 -149 -17 -11 -237 -44 -298 -45 -5 0 -8 47 -8 103 0
112 5 124 60 146 40 16 175 13 219 -5z"/>
<path d="M7037 1410 c-128 -33 -177 -97 -177 -233 0 -115 25 -168 96 -202 18
-8 84 -29 146 -45 188 -49 208 -64 208 -155 0 -53 -21 -79 -77 -94 -85 -24
-221 -6 -248 32 -9 12 -15 44 -15 74 0 59 -14 73 -74 73 -51 0 -70 -32 -61
-102 21 -156 103 -212 310 -210 107 0 162 14 226 56 54 36 73 85 73 186 -1
156 -38 191 -269 251 -123 32 -155 44 -167 63 -13 18 -9 131 5 148 19 24 73
38 147 38 53 0 74 -5 101 -23 30 -20 35 -29 39 -79 6 -68 16 -80 68 -82 59 -1
72 15 72 88 -1 148 -84 216 -270 222 -52 2 -112 -1 -133 -6z"/>
<path d="M3273 1400 l-23 -9 0 -361 c0 -386 2 -404 52 -457 25 -27 50 -29 84
-7 42 28 47 49 24 93 -19 38 -20 58 -20 374 0 251 -3 337 -13 350 -15 21 -73
30 -104 17z"/>
<path d="M4023 1400 c-14 -6 -23 -18 -23 -31 0 -46 111 -680 125 -711 34 -77
78 -104 187 -114 l75 -6 -9 -52 c-12 -68 -27 -105 -49 -116 -10 -6 -51 -10
-93 -10 -41 0 -86 -4 -100 -10 -22 -8 -26 -16 -26 -53 0 -24 5 -48 12 -55 17
-17 183 -15 245 3 61 18 94 53 117 122 22 67 178 997 170 1017 -8 20 -62 30
-96 17 -16 -6 -30 -20 -33 -33 -5 -25 -115 -683 -115 -692 0 -4 -27 -6 -60 -6
-101 0 -91 -23 -166 418 -26 156 -53 290 -59 298 -13 18 -73 27 -102 14z"/>
<path d="M8162 1400 c-25 -10 -28 -18 -92 -193 -23 -65 -49 -125 -57 -133 -9
-9 -35 -14 -72 -14 -67 0 -85 -14 -85 -65 0 -56 15 -65 115 -65 109 0 102 8
160 -190 23 -80 48 -153 57 -162 10 -12 30 -18 58 -18 70 0 71 12 15 207 -51
179 -61 205 -93 240 l-20 22 56 158 c31 87 56 168 56 180 0 37 -48 53 -98 33z"/>
<path d="M2462 1380 c-18 -29 -15 -67 8 -90 18 -18 33 -20 150 -20 131 0 193
-13 212 -43 4 -7 8 -49 8 -94 0 -79 -1 -83 -22 -83 -52 -1 -258 -29 -296 -41
-85 -25 -122 -93 -122 -221 2 -166 63 -216 275 -226 115 -4 123 -4 144 17 23
23 26 46 11 85 -9 26 -10 26 -125 26 -110 0 -117 1 -140 25 -20 20 -25 34 -25
78 0 94 23 107 211 122 l86 7 7 -128 c5 -109 10 -137 32 -181 30 -63 57 -75
106 -46 40 23 47 57 22 105 -15 28 -19 72 -23 308 -6 251 -8 278 -26 308 -49
81 -145 112 -345 112 -124 0 -136 -2 -148 -20z"/>
<path d="M4812 738 c-19 -19 -16 -162 4 -178 19 -17 101 -17 117 -1 19 19 16
169 -3 181 -21 14 -104 12 -118 -2z"/>
</g>
</svg>
